<?xml version="1.0" encoding="utf-8"?>
<!-- Generator: Adobe Illustrator 16.0.0, SVG Export Plug-In . SVG Version: 6.00 Build 0)  -->
<!DOCTYPE svg PUBLIC "-//W3C//DTD SVG 1.1//EN" "http://www.w3.org/Graphics/SVG/1.1/DTD/svg11.dtd">
<svg version="1.1" id="Layer_1" xmlns="http://www.w3.org/2000/svg" xmlns:xlink="http://www.w3.org/1999/xlink" x="0px" y="0px"
	 width="48px" height="48px" viewBox="0 0 48 48" enable-background="new 0 0 48 48" xml:space="preserve">
<path d="M14,10v4h28v-4H14z M14,38h28v-4H14V38z M14,26h28v-4H14V26z"/>
<path fill="none" d="M0,0h48v48H0V0z"/>
<g>
	<path d="M11.875,15.833h-1.688l-1.125-1.125l-1.125,1.125h-2.25L4,14.146v-2.25l1.688-1.688H8.5V9.083H5.125V7.958h3.938
		l1.688,1.688v4.746l0.281,0.316h0.844V15.833z M8.5,11.333H6.25v3.375h1.406L8.5,13.864V11.333z"/>
</g>
<g>
	<path d="M11.613,27.3l-1.575,1.575H5.312v-9.451h-1.05v-1.05h3.15v3.15h1.575l2.625,2.625V27.3z M9.513,24.149l-1.575-1.575H7.413
		v5.251h2.1V24.149z"/>
</g>
<g>
	<path d="M12.125,33.959h-1.688l-1.125-1.125H6.5v5.625h2.812l1.125-1.125h1.688v0.562l-1.688,1.688h-4.5L4.25,37.896v-4.5
		l1.688-1.688h4.5l1.688,1.688V33.959z"/>
</g>
</svg>
