<?xml version="1.0" encoding="utf-8"?>
<!-- Generator: Adobe Illustrator 16.0.4, SVG Export Plug-In . SVG Version: 6.00 Build 0)  -->
<!DOCTYPE svg PUBLIC "-//W3C//DTD SVG 1.1//EN" "http://www.w3.org/Graphics/SVG/1.1/DTD/svg11.dtd">
<svg version="1.1" id="Layer_1" xmlns="http://www.w3.org/2000/svg" xmlns:xlink="http://www.w3.org/1999/xlink" x="0px" y="0px"
	 width="189.541px" height="53.636px" viewBox="0 0 189.541 53.636" enable-background="new 0 0 189.541 53.636"
	 xml:space="preserve">
<g>
	<path fill="#FFFFFF" d="M186.733,50.902c-1.922,1.633-4.225,2.449-6.91,2.449c-4.609,0-8.064-2.09-10.369-6.266l2.521-1.514
		c0.813,1.49,1.799,2.643,2.951,3.457c1.198,0.912,2.832,1.367,4.895,1.367c4.512,0,6.77-1.918,6.77-5.762
		c0-1.68-0.793-3.143-2.377-4.391c-0.48-0.289-1.164-0.613-2.051-0.973c-0.891-0.359-1.98-0.779-3.277-1.26
		c-2.4-0.863-4.127-1.729-5.184-2.594c-1.537-1.246-2.305-3.047-2.305-5.398c0-2.018,0.768-3.744,2.305-5.185
		c1.486-1.486,3.432-2.23,5.832-2.23c3.312,0,6.119,1.15,8.424,3.456l-2.16,1.872c-1.631-1.632-3.719-2.448-6.264-2.448
		c-3.455,0-5.186,1.513-5.186,4.536c0,1.344,0.527,2.447,1.584,3.312c0.863,0.672,2.232,1.32,4.104,1.943
		c1.633,0.574,2.978,1.115,4.032,1.619s1.847,0.947,2.375,1.332c2.064,1.584,3.097,3.721,3.097,6.406
		C189.541,47.232,188.604,49.318,186.733,50.902z"/>
	<path fill="#FFFFFF" d="M163.062,49.171c-2.978,2.977-6.625,4.465-10.942,4.465c-4.319,0-7.944-1.465-10.873-4.395
		c-2.978-2.977-4.466-6.623-4.466-10.943c0-4.271,1.488-7.895,4.466-10.871c2.929-3.024,6.554-4.537,10.873-4.537
		c4.271,0,7.896,1.488,10.87,4.464c2.979,2.977,4.466,6.623,4.466,10.941C167.454,42.619,165.987,46.244,163.062,49.171z
		 M160.974,29.443c-2.399-2.449-5.354-3.671-8.854-3.671c-3.36,0-6.267,1.249-8.714,3.744c-2.495,2.496-3.743,5.426-3.743,8.783
		c0,3.41,1.226,6.338,3.672,8.785s5.375,3.672,8.785,3.672c3.454,0,6.383-1.199,8.782-3.602c2.447-2.445,3.673-5.398,3.673-8.855
		C164.571,34.794,163.371,31.843,160.974,29.443z"/>
	<path fill="#FFFFFF" d="M129.826,53.353V35.568c0-6.287-2.832-9.431-8.494-9.431c-2.785,0-4.896,0.816-6.338,2.447
		c-1.488,1.633-2.229,3.863-2.229,6.695v18.072h-2.953V23.615h2.953v3.6c1.342-2.639,4.198-3.959,8.567-3.959
		c3.694,0,6.524,1.057,8.494,3.168c1.969,2.113,2.952,5.064,2.952,8.855v18.072L129.826,53.353L129.826,53.353z"/>
	<path fill="#FFFFFF" d="M71.554,28.007c-0.769-0.576-1.584-1.031-2.447-1.369c-0.862-0.336-1.775-0.504-2.734-0.504
		c-0.816,0-1.584,0.252-2.307,0.756c-0.719,0.505-1.344,1.128-1.871,1.871c-0.527,0.744-0.947,1.572-1.26,2.484
		s-0.469,1.752-0.469,2.521v19.584h-2.951V23.615h2.951v4.033c0.623-1.105,1.439-2.111,2.448-3.025
		c1.008-0.91,2.11-1.367,3.312-1.367c1.487,0,2.711,0.168,3.672,0.504s2.041,0.937,3.24,1.801L71.554,28.007z"/>
	<path fill="#FFFFFF" d="M49.562,53.353v-17.93c0-6.287-2.93-9.432-8.785-9.432c-2.398,0-4.463,0.72-6.189,2.161
		c-1.775,1.438-2.664,3.357-2.664,5.76v19.367h-2.951V0h2.951v27.501c1.775-2.925,4.727-4.391,8.854-4.391
		c7.824,0,11.736,4.009,11.736,12.022v18.217L49.562,53.353L49.562,53.353z"/>
	<g>
		<path fill="#FFFFFF" d="M99.33,29.443c2.397,2.4,3.601,5.352,3.601,8.855c0,3.455-1.226,6.408-3.672,8.855
			c-0.087,0.086-0.179,0.158-0.267,0.242l1.543,2.576c0.299-0.26,0.599-0.52,0.883-0.805c2.929-2.928,4.394-6.553,4.394-10.873
			c0-4.318-1.488-7.967-4.465-10.941c-0.281-0.283-0.576-0.539-0.869-0.794l-1.52,2.533C99.082,29.212,99.21,29.32,99.33,29.443z"/>
		<path fill="#FFFFFF" d="M96.619,49.177c-1.82,1.045-3.865,1.578-6.146,1.578c-1.449,0-2.808-0.234-4.082-0.678
			c-0.931-0.322-1.815-0.756-2.652-1.312c-0.717-0.477-1.4-1.033-2.051-1.682c-2.445-2.447-3.672-5.375-3.672-8.785
			c0-3.357,1.248-6.287,3.744-8.785c0.65-0.66,1.336-1.229,2.051-1.717c0.834-0.567,1.715-1.009,2.64-1.337
			c1.261-0.449,2.599-0.688,4.022-0.688c2.269,0,4.303,0.521,6.108,1.548l1.481-2.478c-2.252-1.291-4.776-1.951-7.592-1.951
			c-2.009,0-3.856,0.342-5.564,0.994c-0.924,0.354-1.801,0.801-2.635,1.344c-0.944,0.615-1.842,1.339-2.674,2.197
			c-2.977,2.979-4.465,6.602-4.465,10.873c0,4.32,1.488,7.971,4.465,10.943c0.812,0.812,1.684,1.5,2.603,2.088
			c0.838,0.533,1.72,0.975,2.646,1.322c1.723,0.645,3.596,0.98,5.625,0.98c2.842,0,5.389-0.656,7.648-1.945L96.619,49.177z"/>
		<polyline fill="none" stroke="#FFFFFF" stroke-width="2.5" stroke-miterlimit="10" points="94.416,30.07 89.476,38.283 
			95.158,47.712 		"/>
	</g>
	<g>
		<path fill="#FFFFFF" d="M15.41,53.636c-4.417,0-8.091-1.465-11.019-4.393S0,42.644,0,38.224c0-4.414,1.464-8.088,4.392-11.013
			c2.928-2.929,6.602-4.394,11.019-4.394c3.791,0,6.813,0.864,9.071,2.592v3.53l-1.873-1.227l-2.016-1.08
			c-1.824-0.623-3.554-0.937-5.185-0.937c-3.697,0-6.696,1.151-9,3.456c-2.354,2.354-3.528,5.377-3.528,9.072
			c0,3.648,1.176,6.648,3.528,9c2.351,2.354,5.353,3.529,9,3.529c3.456,0,6.479-1.152,9.071-3.457v3.672
			C21.792,52.748,18.769,53.636,15.41,53.636z"/>
	</g>
</g>
</svg>
