<?xml version="1.0" encoding="utf-8"?>
<!-- Generator: Adobe Illustrator 16.0.0, SVG Export Plug-In . SVG Version: 6.00 Build 0)  -->
<!DOCTYPE svg PUBLIC "-//W3C//DTD SVG 1.1//EN" "http://www.w3.org/Graphics/SVG/1.1/DTD/svg11.dtd">
<svg version="1.1" id="Layer_1" xmlns="http://www.w3.org/2000/svg" xmlns:xlink="http://www.w3.org/1999/xlink" x="0px" y="0px"
	 width="333.244px" height="90.829px" viewBox="45.977 96.318 333.244 90.829"
	 enable-background="new 45.977 96.318 333.244 90.829" xml:space="preserve">
<g id="Layer_2">
</g>
<g id="Layer_1_1_">
</g>
<g id="Layer_4">
	<g>
		<g>
			<g>
				<path fill="none" stroke="#FFFFFF" stroke-width="1.2648" d="M178.916,140.271c-1.05,0.769-2.474,1.236-4.271,1.405
					c-0.207,0.019-0.432,0.032-0.674,0.042c-0.244,0.01-0.497,0.015-0.76,0.015c-3.036,0-5.509-0.956-7.421-2.867
					c-1.93-1.93-2.895-4.413-2.895-7.448c0-3.036,0.956-5.51,2.867-7.421c1.93-1.93,4.412-2.896,7.448-2.896
					c1.725,0,3.278,0.254,4.666,0.76c0.824,0.318,1.621,0.777,2.39,1.377v1.434c-0.787-0.656-1.649-1.181-2.586-1.574
					c-1.425-0.58-2.914-0.871-4.47-0.871c-2.662,0-4.854,0.861-6.578,2.586c-1.724,1.724-2.586,3.926-2.586,6.605
					c0,2.679,0.854,4.872,2.559,6.576c1.724,1.725,3.925,2.587,6.604,2.587c1.667,0,3.12-0.3,4.356-0.9
					c0.712-0.355,1.61-0.927,2.698-1.714v1.321L178.916,140.271z"/>
				<path fill="none" stroke="#FFFFFF" stroke-width="1.2648" d="M196.679,137.629v3.822h-1.182v-3.822h-10.314l11.496-16.528
					v15.403h2.333v1.125H196.679z M195.499,124.671l-8.263,11.833h8.263V124.671z"/>
			</g>
			<g>
				<path fill="#FFFFFF" d="M216.174,165.557c-1.797,1.529-3.957,2.293-6.475,2.293c-4.317,0-7.555-1.955-9.714-5.869l2.361-1.416
					c0.764,1.396,1.687,2.475,2.766,3.237c1.124,0.855,2.653,1.282,4.587,1.282c4.227,0,6.342-1.799,6.342-5.396
					c0-1.573-0.742-2.944-2.227-4.114c-0.451-0.271-1.092-0.573-1.923-0.911c-0.833-0.337-1.855-0.73-3.069-1.18
					c-2.249-0.811-3.869-1.621-4.857-2.43c-1.439-1.169-2.158-2.854-2.158-5.06c0-1.89,0.718-3.509,2.158-4.856
					c1.395-1.394,3.216-2.092,5.464-2.092c3.104,0,5.734,1.08,7.894,3.238l-2.023,1.754c-1.528-1.528-3.485-2.294-5.869-2.294
					c-3.238,0-4.856,1.417-4.856,4.25c0,1.26,0.494,2.294,1.483,3.103c0.811,0.631,2.092,1.237,3.846,1.822
					c1.528,0.539,2.789,1.045,3.778,1.518c0.987,0.473,1.729,0.89,2.225,1.248c1.934,1.484,2.902,3.485,2.902,6.004
					C218.807,162.115,217.93,164.072,216.174,165.557z"/>
				<path fill="#FFFFFF" d="M235.738,142.216v25.095h-2.766v-25.095h-3.779v-2.766h3.779v-12.21h2.766v12.21h6.475v2.766H235.738z"
					/>
				<path fill="#FFFFFF" d="M272.906,164.882c-1.844,1.979-4.43,2.968-7.756,2.968c-3.285,0-5.826-0.967-7.623-2.899
					c-1.801-1.935-2.699-4.632-2.699-8.095V139.45h2.767v17.403c0,2.653,0.584,4.699,1.754,6.14
					c1.215,1.438,3.147,2.157,5.803,2.157c5.17,0,7.756-2.766,7.756-8.297V139.45h2.699v17.403
					C275.605,160.271,274.705,162.948,272.906,164.882z"/>
				<path fill="#FFFFFF" d="M315.339,167.311v-4.992c-2.97,3.644-6.746,5.465-11.335,5.465c-4.047,0-7.442-1.371-10.186-4.115
					c-2.789-2.788-4.184-6.206-4.184-10.253c0-4.048,1.372-7.442,4.114-10.187c2.789-2.789,6.207-4.184,10.254-4.184
					c4.453,0,8.23,1.821,11.335,5.465v-27.119h2.766v49.919H315.339z M312.234,145.184c-2.293-2.293-5.037-3.439-8.23-3.439
					c-3.237,0-5.979,1.125-8.229,3.373c-2.293,2.293-3.439,5.06-3.439,8.298c0,3.192,1.146,5.937,3.439,8.229
					c2.295,2.293,5.037,3.439,8.229,3.439c3.238,0,5.98-1.124,8.23-3.373c2.293-2.294,3.439-5.061,3.439-8.297
					C315.675,150.221,314.527,147.479,312.234,145.184z"/>
				<path fill="#FFFFFF" d="M375.105,163.6c-2.789,2.789-6.207,4.184-10.254,4.184c-4.049,0-7.443-1.371-10.188-4.115
					c-2.789-2.788-4.182-6.206-4.182-10.253c0-4.003,1.393-7.397,4.182-10.187c2.744-2.833,6.14-4.25,10.188-4.25
					c4.002,0,7.396,1.395,10.186,4.183c2.789,2.789,4.185,6.206,4.185,10.254C379.221,157.461,377.848,160.857,375.105,163.6z
					 M373.148,145.116c-2.25-2.293-5.016-3.44-8.297-3.44c-3.148,0-5.869,1.17-8.162,3.508c-2.34,2.34-3.508,5.084-3.508,8.23
					c0,3.193,1.146,5.936,3.438,8.229s5.037,3.44,8.23,3.44c3.236,0,5.979-1.124,8.229-3.373c2.294-2.294,3.439-5.06,3.439-8.297
					C376.521,150.132,375.396,147.365,373.148,145.116z"/>
				<g>
					<rect x="333.552" y="144.509" fill="#FFFFFF" width="2.766" height="22.802"/>
					<rect x="333.553" y="138.753" fill="#FFFFFF" width="2.766" height="2.563"/>
				</g>
			</g>
		</g>
		<g>
			<polygon fill="#FFFFFF" points="103.249,167.166 108.581,152.516 108.582,152.518 123.233,157.848 112.57,187.146 
				83.269,176.482 83.269,176.482 88.601,161.832 88.695,161.866 			"/>
			<g>
				<polygon fill="#FFFFFF" points="65.958,153.59 80.608,158.922 80.608,158.924 75.277,173.574 45.977,162.912 56.641,133.609 
					56.641,133.609 71.292,138.941 71.257,139.036 				"/>
			</g>
			<g>
				<polygon fill="#FFFFFF" points="79.535,116.301 74.203,130.95 74.201,130.95 59.551,125.619 70.213,96.318 99.515,106.982 
					99.515,106.982 94.183,121.633 94.088,121.599 				"/>
			</g>
			<g>
				<polygon fill="#FFFFFF" points="124.09,126.488 109.44,121.156 109.441,121.154 114.771,106.504 144.072,117.167 
					133.408,146.469 133.408,146.469 118.758,141.137 118.792,141.042 				"/>
			</g>
		</g>
	</g>
</g>
</svg>
